<mxfile host="app.diagrams.net" modified="2024-01-24T13:44:13.034Z" agent="Mozilla/5.0 (Windows NT 10.0; Win64; x64; rv:121.0) Gecko/20100101 Firefox/121.0" etag="fn_YZoGUXiTsgn9HNYy-" version="23.0.0" type="github">
  <diagram name="Page-1" id="efvS9fA6Rw_fWhfUcUac">
    <mxGraphModel dx="1235" dy="712" grid="1" gridSize="10" guides="1" tooltips="1" connect="1" arrows="1" fold="1" page="1" pageScale="1" pageWidth="1400" pageHeight="850" background="#FFFFFF" math="0" shadow="0">
      <root>
        <mxCell id="0" />
        <mxCell id="1" parent="0" />
        <mxCell id="702DxE4d49M8s_BqWGsq-64" style="edgeStyle=orthogonalEdgeStyle;rounded=0;orthogonalLoop=1;jettySize=auto;html=1;entryX=0;entryY=0.5;entryDx=0;entryDy=0;labelBackgroundColor=none;strokeColor=#A8201A;fontColor=default;" edge="1" parent="1" source="702DxE4d49M8s_BqWGsq-1" target="702DxE4d49M8s_BqWGsq-63">
          <mxGeometry relative="1" as="geometry">
            <Array as="points">
              <mxPoint x="330" y="60" />
            </Array>
          </mxGeometry>
        </mxCell>
        <mxCell id="702DxE4d49M8s_BqWGsq-1" value="UC1: REGISTER" style="ellipse;whiteSpace=wrap;html=1;labelBackgroundColor=none;fillColor=#FAE5C7;strokeColor=#0F8B8D;fontColor=#143642;" vertex="1" parent="1">
          <mxGeometry x="260" y="70" width="140" height="80" as="geometry" />
        </mxCell>
        <mxCell id="702DxE4d49M8s_BqWGsq-31" style="edgeStyle=orthogonalEdgeStyle;rounded=0;orthogonalLoop=1;jettySize=auto;html=1;exitX=0.5;exitY=0;exitDx=0;exitDy=0;entryX=0.5;entryY=1;entryDx=0;entryDy=0;labelBackgroundColor=none;strokeColor=#A8201A;fontColor=default;" edge="1" parent="1" source="702DxE4d49M8s_BqWGsq-2" target="702DxE4d49M8s_BqWGsq-1">
          <mxGeometry relative="1" as="geometry" />
        </mxCell>
        <mxCell id="702DxE4d49M8s_BqWGsq-84" style="edgeStyle=orthogonalEdgeStyle;rounded=0;orthogonalLoop=1;jettySize=auto;html=1;exitX=0;exitY=0;exitDx=0;exitDy=0;labelBackgroundColor=none;strokeColor=#A8201A;fontColor=default;" edge="1" parent="1" source="702DxE4d49M8s_BqWGsq-2" target="702DxE4d49M8s_BqWGsq-83">
          <mxGeometry relative="1" as="geometry" />
        </mxCell>
        <mxCell id="702DxE4d49M8s_BqWGsq-87" style="edgeStyle=orthogonalEdgeStyle;rounded=0;orthogonalLoop=1;jettySize=auto;html=1;exitX=0;exitY=0.5;exitDx=0;exitDy=0;entryX=0;entryY=0.5;entryDx=0;entryDy=0;entryPerimeter=0;labelBackgroundColor=none;strokeColor=#A8201A;fontColor=default;" edge="1" parent="1" source="702DxE4d49M8s_BqWGsq-2" target="702DxE4d49M8s_BqWGsq-88">
          <mxGeometry relative="1" as="geometry">
            <mxPoint x="690" y="720" as="targetPoint" />
            <Array as="points">
              <mxPoint x="330" y="290" />
              <mxPoint x="180" y="290" />
              <mxPoint x="180" y="750" />
              <mxPoint x="680" y="750" />
              <mxPoint x="680" y="748" />
            </Array>
          </mxGeometry>
        </mxCell>
        <mxCell id="702DxE4d49M8s_BqWGsq-2" value="UC2: LOGIN" style="ellipse;whiteSpace=wrap;html=1;labelBackgroundColor=none;fillColor=#FAE5C7;strokeColor=#0F8B8D;fontColor=#143642;" vertex="1" parent="1">
          <mxGeometry x="330" y="240" width="140" height="70" as="geometry" />
        </mxCell>
        <mxCell id="702DxE4d49M8s_BqWGsq-3" value="UC3: MODIFY USER ACCOUNT" style="ellipse;whiteSpace=wrap;html=1;labelBackgroundColor=none;fillColor=#FAE5C7;strokeColor=#0F8B8D;fontColor=#143642;" vertex="1" parent="1">
          <mxGeometry x="200" y="410" width="140" height="70" as="geometry" />
        </mxCell>
        <mxCell id="702DxE4d49M8s_BqWGsq-77" style="edgeStyle=orthogonalEdgeStyle;rounded=0;orthogonalLoop=1;jettySize=auto;html=1;entryX=0.5;entryY=1;entryDx=0;entryDy=0;exitX=1;exitY=0.5;exitDx=0;exitDy=0;labelBackgroundColor=none;strokeColor=#A8201A;fontColor=default;" edge="1" parent="1" source="702DxE4d49M8s_BqWGsq-4" target="702DxE4d49M8s_BqWGsq-66">
          <mxGeometry relative="1" as="geometry">
            <mxPoint x="640" y="440" as="sourcePoint" />
            <Array as="points">
              <mxPoint x="610" y="440" />
              <mxPoint x="640" y="440" />
              <mxPoint x="640" y="480" />
              <mxPoint x="920" y="480" />
            </Array>
          </mxGeometry>
        </mxCell>
        <mxCell id="702DxE4d49M8s_BqWGsq-4" value="UC8:  AUTOMATED EMAIL AND SMS " style="ellipse;whiteSpace=wrap;html=1;labelBackgroundColor=none;fillColor=#FAE5C7;strokeColor=#0F8B8D;fontColor=#143642;" vertex="1" parent="1">
          <mxGeometry x="470" y="410" width="140" height="70" as="geometry" />
        </mxCell>
        <mxCell id="702DxE4d49M8s_BqWGsq-5" value="UC11: VIEW ACTIVITY AND HISTORY" style="ellipse;whiteSpace=wrap;html=1;labelBackgroundColor=none;fillColor=#FAE5C7;strokeColor=#0F8B8D;fontColor=#143642;" vertex="1" parent="1">
          <mxGeometry x="470" y="570" width="140" height="70" as="geometry" />
        </mxCell>
        <mxCell id="702DxE4d49M8s_BqWGsq-6" value="UC13: MODIFY PROPERTY DETAILS" style="ellipse;whiteSpace=wrap;html=1;labelBackgroundColor=none;fillColor=#FAE5C7;strokeColor=#0F8B8D;fontColor=#143642;" vertex="1" parent="1">
          <mxGeometry x="200" y="490" width="140" height="70" as="geometry" />
        </mxCell>
        <mxCell id="702DxE4d49M8s_BqWGsq-7" value="UC15: VIEW PAYMENT RECEIPTS " style="ellipse;whiteSpace=wrap;html=1;labelBackgroundColor=none;fillColor=#FAE5C7;strokeColor=#0F8B8D;fontColor=#143642;" vertex="1" parent="1">
          <mxGeometry x="470" y="490" width="140" height="70" as="geometry" />
        </mxCell>
        <mxCell id="702DxE4d49M8s_BqWGsq-8" value="UC16: VIEW PROPOSED RESPONSES" style="ellipse;whiteSpace=wrap;html=1;labelBackgroundColor=none;fillColor=#FAE5C7;strokeColor=#0F8B8D;fontColor=#143642;" vertex="1" parent="1">
          <mxGeometry x="200" y="570" width="140" height="70" as="geometry" />
        </mxCell>
        <mxCell id="702DxE4d49M8s_BqWGsq-17" style="edgeStyle=orthogonalEdgeStyle;rounded=0;orthogonalLoop=1;jettySize=auto;html=1;exitX=0.5;exitY=0.5;exitDx=0;exitDy=0;exitPerimeter=0;entryX=0;entryY=0.5;entryDx=0;entryDy=0;labelBackgroundColor=none;strokeColor=#A8201A;fontColor=default;" edge="1" parent="1" source="702DxE4d49M8s_BqWGsq-9" target="702DxE4d49M8s_BqWGsq-2">
          <mxGeometry relative="1" as="geometry" />
        </mxCell>
        <mxCell id="702DxE4d49M8s_BqWGsq-61" style="edgeStyle=orthogonalEdgeStyle;rounded=0;orthogonalLoop=1;jettySize=auto;html=1;exitX=1;exitY=0.3333333333333333;exitDx=0;exitDy=0;exitPerimeter=0;entryX=0;entryY=0.5;entryDx=0;entryDy=0;labelBackgroundColor=none;strokeColor=#A8201A;fontColor=default;" edge="1" parent="1" source="702DxE4d49M8s_BqWGsq-9" target="702DxE4d49M8s_BqWGsq-1">
          <mxGeometry relative="1" as="geometry">
            <Array as="points">
              <mxPoint x="100" y="257" />
              <mxPoint x="100" y="110" />
            </Array>
          </mxGeometry>
        </mxCell>
        <mxCell id="702DxE4d49M8s_BqWGsq-9" value="user" style="shape=umlActor;verticalLabelPosition=bottom;verticalAlign=top;html=1;labelBackgroundColor=none;fillColor=#FAE5C7;strokeColor=#0F8B8D;fontColor=#143642;" vertex="1" parent="1">
          <mxGeometry x="10" y="220" width="70" height="110" as="geometry" />
        </mxCell>
        <mxCell id="702DxE4d49M8s_BqWGsq-25" value="Extends" style="endArrow=block;endSize=16;endFill=0;html=1;rounded=0;entryX=0.243;entryY=0.986;entryDx=0;entryDy=0;entryPerimeter=0;exitX=0.743;exitY=0.086;exitDx=0;exitDy=0;exitPerimeter=0;labelBackgroundColor=none;strokeColor=#A8201A;fontColor=default;" edge="1" parent="1" source="702DxE4d49M8s_BqWGsq-3">
          <mxGeometry width="160" relative="1" as="geometry">
            <mxPoint x="305.98" y="370.98" as="sourcePoint" />
            <mxPoint x="340" y="290" as="targetPoint" />
          </mxGeometry>
        </mxCell>
        <mxCell id="702DxE4d49M8s_BqWGsq-26" value="Extends" style="endArrow=block;endSize=16;endFill=0;html=1;rounded=0;entryX=0.214;entryY=1;entryDx=0;entryDy=0;entryPerimeter=0;exitX=1;exitY=0.4;exitDx=0;exitDy=0;exitPerimeter=0;labelBackgroundColor=none;strokeColor=#A8201A;fontColor=default;" edge="1" parent="1" source="702DxE4d49M8s_BqWGsq-6" target="702DxE4d49M8s_BqWGsq-2">
          <mxGeometry x="0.0159" y="-3" width="160" relative="1" as="geometry">
            <mxPoint x="340" y="466" as="sourcePoint" />
            <mxPoint x="390" y="440" as="targetPoint" />
            <Array as="points">
              <mxPoint x="360" y="440" />
            </Array>
            <mxPoint as="offset" />
          </mxGeometry>
        </mxCell>
        <mxCell id="702DxE4d49M8s_BqWGsq-27" value="Extends" style="endArrow=block;endSize=16;endFill=0;html=1;rounded=0;exitX=0.986;exitY=0.414;exitDx=0;exitDy=0;exitPerimeter=0;entryX=0.393;entryY=1;entryDx=0;entryDy=0;entryPerimeter=0;labelBackgroundColor=none;strokeColor=#A8201A;fontColor=default;" edge="1" parent="1" source="702DxE4d49M8s_BqWGsq-8" target="702DxE4d49M8s_BqWGsq-2">
          <mxGeometry x="0.0031" width="160" relative="1" as="geometry">
            <mxPoint x="350" y="540" as="sourcePoint" />
            <mxPoint x="390" y="320" as="targetPoint" />
            <Array as="points">
              <mxPoint x="385" y="510" />
            </Array>
            <mxPoint as="offset" />
          </mxGeometry>
        </mxCell>
        <mxCell id="702DxE4d49M8s_BqWGsq-28" value="Extends" style="endArrow=block;endSize=16;endFill=0;html=1;rounded=0;entryX=0.593;entryY=1.014;entryDx=0;entryDy=0;exitX=0;exitY=0.5;exitDx=0;exitDy=0;entryPerimeter=0;labelBackgroundColor=none;strokeColor=#A8201A;fontColor=default;" edge="1" parent="1" source="702DxE4d49M8s_BqWGsq-5" target="702DxE4d49M8s_BqWGsq-2">
          <mxGeometry x="-0.215" width="160" relative="1" as="geometry">
            <mxPoint x="360" y="564" as="sourcePoint" />
            <mxPoint x="413" y="320" as="targetPoint" />
            <Array as="points">
              <mxPoint x="413" y="510" />
            </Array>
            <mxPoint as="offset" />
          </mxGeometry>
        </mxCell>
        <mxCell id="702DxE4d49M8s_BqWGsq-29" value="Extends" style="endArrow=block;endSize=16;endFill=0;html=1;rounded=0;entryX=0.743;entryY=1;entryDx=0;entryDy=0;entryPerimeter=0;exitX=-0.007;exitY=0.357;exitDx=0;exitDy=0;exitPerimeter=0;labelBackgroundColor=none;strokeColor=#A8201A;fontColor=default;" edge="1" parent="1" source="702DxE4d49M8s_BqWGsq-7" target="702DxE4d49M8s_BqWGsq-2">
          <mxGeometry x="0.0159" y="-3" width="160" relative="1" as="geometry">
            <mxPoint x="460" y="466" as="sourcePoint" />
            <mxPoint x="440" y="310" as="targetPoint" />
            <Array as="points">
              <mxPoint x="440" y="440" />
            </Array>
            <mxPoint as="offset" />
          </mxGeometry>
        </mxCell>
        <mxCell id="702DxE4d49M8s_BqWGsq-30" value="Extends" style="endArrow=block;endSize=16;endFill=0;html=1;rounded=0;entryX=0.9;entryY=0.871;entryDx=0;entryDy=0;entryPerimeter=0;exitX=0.221;exitY=0.1;exitDx=0;exitDy=0;exitPerimeter=0;labelBackgroundColor=none;strokeColor=#A8201A;fontColor=default;" edge="1" parent="1" source="702DxE4d49M8s_BqWGsq-4" target="702DxE4d49M8s_BqWGsq-2">
          <mxGeometry width="160" relative="1" as="geometry">
            <mxPoint x="500" y="370" as="sourcePoint" />
            <mxPoint x="480" y="290" as="targetPoint" />
            <mxPoint as="offset" />
          </mxGeometry>
        </mxCell>
        <mxCell id="702DxE4d49M8s_BqWGsq-53" style="edgeStyle=orthogonalEdgeStyle;rounded=0;orthogonalLoop=1;jettySize=auto;html=1;entryX=1;entryY=0.5;entryDx=0;entryDy=0;labelBackgroundColor=none;strokeColor=#A8201A;fontColor=default;" edge="1" parent="1" source="702DxE4d49M8s_BqWGsq-34" target="702DxE4d49M8s_BqWGsq-2">
          <mxGeometry relative="1" as="geometry" />
        </mxCell>
        <mxCell id="702DxE4d49M8s_BqWGsq-67" style="edgeStyle=orthogonalEdgeStyle;rounded=0;orthogonalLoop=1;jettySize=auto;html=1;exitX=0.5;exitY=0;exitDx=0;exitDy=0;entryX=0;entryY=0.5;entryDx=0;entryDy=0;labelBackgroundColor=none;strokeColor=#A8201A;fontColor=default;" edge="1" parent="1" source="702DxE4d49M8s_BqWGsq-34" target="702DxE4d49M8s_BqWGsq-66">
          <mxGeometry relative="1" as="geometry" />
        </mxCell>
        <mxCell id="702DxE4d49M8s_BqWGsq-34" value="UC4: SEARCH PROPERTIES" style="ellipse;whiteSpace=wrap;html=1;labelBackgroundColor=none;fillColor=#FAE5C7;strokeColor=#0F8B8D;fontColor=#143642;" vertex="1" parent="1">
          <mxGeometry x="670" y="240" width="140" height="70" as="geometry" />
        </mxCell>
        <mxCell id="702DxE4d49M8s_BqWGsq-35" value="UC7: COMPARISON B/W VARIOUS PROPERTIES" style="ellipse;whiteSpace=wrap;html=1;labelBackgroundColor=none;fillColor=#FAE5C7;strokeColor=#0F8B8D;fontColor=#143642;" vertex="1" parent="1">
          <mxGeometry x="670" y="390" width="140" height="70" as="geometry" />
        </mxCell>
        <mxCell id="702DxE4d49M8s_BqWGsq-36" value="UC10: USER ACCOUNT SEARCH" style="ellipse;whiteSpace=wrap;html=1;labelBackgroundColor=none;fillColor=#FAE5C7;strokeColor=#0F8B8D;fontColor=#143642;" vertex="1" parent="1">
          <mxGeometry x="670" y="80" width="140" height="70" as="geometry" />
        </mxCell>
        <mxCell id="702DxE4d49M8s_BqWGsq-39" value="&amp;lt;&amp;lt;includes&amp;gt;&amp;gt;" style="text;strokeColor=none;align=center;fillColor=none;html=1;verticalAlign=middle;whiteSpace=wrap;rounded=0;labelBackgroundColor=none;fontColor=#143642;" vertex="1" parent="1">
          <mxGeometry x="430" y="190" width="60" height="30" as="geometry" />
        </mxCell>
        <mxCell id="702DxE4d49M8s_BqWGsq-44" value="&amp;lt;&amp;lt;includes&amp;gt;&amp;gt;" style="text;strokeColor=none;align=center;fillColor=none;html=1;verticalAlign=middle;whiteSpace=wrap;rounded=0;labelBackgroundColor=none;fontColor=#143642;" vertex="1" parent="1">
          <mxGeometry x="670" y="340" width="60" height="30" as="geometry" />
        </mxCell>
        <mxCell id="702DxE4d49M8s_BqWGsq-46" value="UC5: USER CHAT" style="ellipse;whiteSpace=wrap;html=1;labelBackgroundColor=none;fillColor=#FAE5C7;strokeColor=#0F8B8D;fontColor=#143642;" vertex="1" parent="1">
          <mxGeometry x="480" y="120" width="140" height="70" as="geometry" />
        </mxCell>
        <mxCell id="702DxE4d49M8s_BqWGsq-49" style="edgeStyle=orthogonalEdgeStyle;rounded=0;orthogonalLoop=1;jettySize=auto;html=1;entryX=0.214;entryY=1;entryDx=0;entryDy=0;entryPerimeter=0;labelBackgroundColor=none;strokeColor=#A8201A;fontColor=default;" edge="1" parent="1" source="702DxE4d49M8s_BqWGsq-35" target="702DxE4d49M8s_BqWGsq-34">
          <mxGeometry relative="1" as="geometry" />
        </mxCell>
        <mxCell id="702DxE4d49M8s_BqWGsq-50" style="edgeStyle=orthogonalEdgeStyle;rounded=0;orthogonalLoop=1;jettySize=auto;html=1;entryX=0.714;entryY=-0.029;entryDx=0;entryDy=0;entryPerimeter=0;labelBackgroundColor=none;strokeColor=#A8201A;fontColor=default;" edge="1" parent="1" source="702DxE4d49M8s_BqWGsq-46" target="702DxE4d49M8s_BqWGsq-2">
          <mxGeometry relative="1" as="geometry" />
        </mxCell>
        <mxCell id="702DxE4d49M8s_BqWGsq-54" value="&amp;lt;&amp;lt;includes&amp;gt;&amp;gt;" style="text;strokeColor=none;align=center;fillColor=none;html=1;verticalAlign=middle;whiteSpace=wrap;rounded=0;labelBackgroundColor=none;fontColor=#143642;" vertex="1" parent="1">
          <mxGeometry x="550" y="270" width="60" height="30" as="geometry" />
        </mxCell>
        <mxCell id="702DxE4d49M8s_BqWGsq-56" style="edgeStyle=orthogonalEdgeStyle;rounded=0;orthogonalLoop=1;jettySize=auto;html=1;entryX=1;entryY=0.286;entryDx=0;entryDy=0;entryPerimeter=0;labelBackgroundColor=none;strokeColor=#A8201A;fontColor=default;" edge="1" parent="1" source="702DxE4d49M8s_BqWGsq-36" target="702DxE4d49M8s_BqWGsq-2">
          <mxGeometry relative="1" as="geometry">
            <Array as="points">
              <mxPoint x="640" y="140" />
              <mxPoint x="640" y="260" />
            </Array>
          </mxGeometry>
        </mxCell>
        <mxCell id="702DxE4d49M8s_BqWGsq-57" value="&amp;lt;&amp;lt;includes&amp;gt;&amp;gt;" style="text;strokeColor=none;align=center;fillColor=none;html=1;verticalAlign=middle;whiteSpace=wrap;rounded=0;labelBackgroundColor=none;fontColor=#143642;" vertex="1" parent="1">
          <mxGeometry x="650" y="170" width="60" height="30" as="geometry" />
        </mxCell>
        <mxCell id="702DxE4d49M8s_BqWGsq-59" value="extends" style="text;strokeColor=none;align=center;fillColor=none;html=1;verticalAlign=middle;whiteSpace=wrap;rounded=0;labelBackgroundColor=none;fontColor=#143642;" vertex="1" parent="1">
          <mxGeometry x="580" y="80" width="60" height="30" as="geometry" />
        </mxCell>
        <mxCell id="702DxE4d49M8s_BqWGsq-62" style="edgeStyle=orthogonalEdgeStyle;rounded=0;orthogonalLoop=1;jettySize=auto;html=1;exitX=0;exitY=0.5;exitDx=0;exitDy=0;entryX=0.571;entryY=0.014;entryDx=0;entryDy=0;entryPerimeter=0;labelBackgroundColor=none;strokeColor=#A8201A;fontColor=default;" edge="1" parent="1" source="702DxE4d49M8s_BqWGsq-36" target="702DxE4d49M8s_BqWGsq-46">
          <mxGeometry relative="1" as="geometry" />
        </mxCell>
        <mxCell id="702DxE4d49M8s_BqWGsq-63" value="UC9: AUTHENTICATOR" style="ellipse;whiteSpace=wrap;html=1;labelBackgroundColor=none;fillColor=#FAE5C7;strokeColor=#0F8B8D;fontColor=#143642;" vertex="1" parent="1">
          <mxGeometry x="420" y="20" width="140" height="80" as="geometry" />
        </mxCell>
        <mxCell id="702DxE4d49M8s_BqWGsq-65" value="&amp;lt;&amp;lt;includes&amp;gt;&amp;gt;" style="text;strokeColor=none;align=center;fillColor=none;html=1;verticalAlign=middle;whiteSpace=wrap;rounded=0;labelBackgroundColor=none;fontColor=#143642;" vertex="1" parent="1">
          <mxGeometry x="340" y="30" width="60" height="30" as="geometry" />
        </mxCell>
        <mxCell id="702DxE4d49M8s_BqWGsq-66" value="UC12: PROPOSE RESPONSE" style="ellipse;whiteSpace=wrap;html=1;labelBackgroundColor=none;fillColor=#FAE5C7;strokeColor=#0F8B8D;fontColor=#143642;" vertex="1" parent="1">
          <mxGeometry x="850" y="310" width="140" height="70" as="geometry" />
        </mxCell>
        <mxCell id="702DxE4d49M8s_BqWGsq-69" value="&amp;lt;&amp;lt;includes&amp;gt;&amp;gt;" style="text;strokeColor=none;align=center;fillColor=none;html=1;verticalAlign=middle;whiteSpace=wrap;rounded=0;labelBackgroundColor=none;fontColor=#143642;" vertex="1" parent="1">
          <mxGeometry x="750" y="200" width="60" height="30" as="geometry" />
        </mxCell>
        <mxCell id="702DxE4d49M8s_BqWGsq-71" style="edgeStyle=orthogonalEdgeStyle;rounded=0;orthogonalLoop=1;jettySize=auto;html=1;exitX=0.5;exitY=1;exitDx=0;exitDy=0;entryX=0.5;entryY=0;entryDx=0;entryDy=0;labelBackgroundColor=none;strokeColor=#A8201A;fontColor=default;" edge="1" parent="1" source="702DxE4d49M8s_BqWGsq-70" target="702DxE4d49M8s_BqWGsq-66">
          <mxGeometry relative="1" as="geometry" />
        </mxCell>
        <mxCell id="702DxE4d49M8s_BqWGsq-70" value="UC6: PAYMENT GATEWAY" style="ellipse;whiteSpace=wrap;html=1;labelBackgroundColor=none;fillColor=#FAE5C7;strokeColor=#0F8B8D;fontColor=#143642;" vertex="1" parent="1">
          <mxGeometry x="850" y="130" width="140" height="70" as="geometry" />
        </mxCell>
        <mxCell id="702DxE4d49M8s_BqWGsq-72" value="&amp;lt;&amp;lt;includes&amp;gt;&amp;gt;" style="text;strokeColor=none;align=center;fillColor=none;html=1;verticalAlign=middle;whiteSpace=wrap;rounded=0;labelBackgroundColor=none;fontColor=#143642;" vertex="1" parent="1">
          <mxGeometry x="890" y="240" width="60" height="30" as="geometry" />
        </mxCell>
        <mxCell id="702DxE4d49M8s_BqWGsq-76" style="edgeStyle=orthogonalEdgeStyle;rounded=0;orthogonalLoop=1;jettySize=auto;html=1;exitX=1;exitY=0.5;exitDx=0;exitDy=0;entryX=1.021;entryY=0.4;entryDx=0;entryDy=0;entryPerimeter=0;labelBackgroundColor=none;strokeColor=#A8201A;fontColor=default;" edge="1" parent="1" source="702DxE4d49M8s_BqWGsq-4" target="702DxE4d49M8s_BqWGsq-70">
          <mxGeometry relative="1" as="geometry">
            <Array as="points">
              <mxPoint x="620" y="445" />
              <mxPoint x="620" y="500" />
              <mxPoint x="1010" y="500" />
              <mxPoint x="1010" y="158" />
            </Array>
          </mxGeometry>
        </mxCell>
        <mxCell id="702DxE4d49M8s_BqWGsq-79" value="extends" style="text;strokeColor=none;align=center;fillColor=none;html=1;verticalAlign=middle;whiteSpace=wrap;rounded=0;labelBackgroundColor=none;fontColor=#143642;" vertex="1" parent="1">
          <mxGeometry x="860" y="420" width="60" height="30" as="geometry" />
        </mxCell>
        <mxCell id="702DxE4d49M8s_BqWGsq-82" value="" style="swimlane;startSize=0;labelBackgroundColor=none;fillColor=#FAE5C7;strokeColor=#0F8B8D;fontColor=#143642;" vertex="1" parent="1">
          <mxGeometry x="90" y="10" width="930" height="640" as="geometry" />
        </mxCell>
        <mxCell id="702DxE4d49M8s_BqWGsq-83" value="UC17: ADD/REMOVE PROPERTY" style="ellipse;whiteSpace=wrap;html=1;labelBackgroundColor=none;fillColor=#FAE5C7;strokeColor=#0F8B8D;fontColor=#143642;" vertex="1" parent="702DxE4d49M8s_BqWGsq-82">
          <mxGeometry x="50" y="150" width="140" height="70" as="geometry" />
        </mxCell>
        <mxCell id="702DxE4d49M8s_BqWGsq-85" value="&amp;lt;&amp;lt;includes&amp;gt;&amp;gt;" style="text;strokeColor=none;align=center;fillColor=none;html=1;verticalAlign=middle;whiteSpace=wrap;rounded=0;labelBackgroundColor=none;fontColor=#143642;" vertex="1" parent="702DxE4d49M8s_BqWGsq-82">
          <mxGeometry x="170" y="220" width="60" height="30" as="geometry" />
        </mxCell>
        <mxCell id="702DxE4d49M8s_BqWGsq-78" value="extends" style="text;strokeColor=none;align=center;fillColor=none;html=1;verticalAlign=middle;whiteSpace=wrap;rounded=0;labelBackgroundColor=none;fontColor=#143642;" vertex="1" parent="702DxE4d49M8s_BqWGsq-82">
          <mxGeometry x="860" y="450" width="60" height="30" as="geometry" />
        </mxCell>
        <mxCell id="702DxE4d49M8s_BqWGsq-88" value="" style="strokeWidth=2;html=1;shape=mxgraph.flowchart.database;whiteSpace=wrap;labelBackgroundColor=none;fillColor=#FAE5C7;strokeColor=#0F8B8D;fontColor=#143642;" vertex="1" parent="1">
          <mxGeometry x="690" y="718" width="60" height="60" as="geometry" />
        </mxCell>
        <mxCell id="702DxE4d49M8s_BqWGsq-92" style="edgeStyle=orthogonalEdgeStyle;rounded=0;orthogonalLoop=1;jettySize=auto;html=1;entryX=0.5;entryY=0;entryDx=0;entryDy=0;strokeColor=#A8201A;fontColor=#143642;fillColor=#FAE5C7;" edge="1" parent="1" source="702DxE4d49M8s_BqWGsq-89" target="702DxE4d49M8s_BqWGsq-70">
          <mxGeometry relative="1" as="geometry" />
        </mxCell>
        <mxCell id="702DxE4d49M8s_BqWGsq-89" value="ADMIN" style="shape=umlActor;verticalLabelPosition=bottom;verticalAlign=top;html=1;labelBackgroundColor=none;fillColor=#FAE5C7;strokeColor=#0F8B8D;fontColor=#143642;" vertex="1" parent="1">
          <mxGeometry x="1110" y="220" width="70" height="110" as="geometry" />
        </mxCell>
        <mxCell id="702DxE4d49M8s_BqWGsq-96" style="edgeStyle=orthogonalEdgeStyle;rounded=0;orthogonalLoop=1;jettySize=auto;html=1;entryX=0.927;entryY=0.248;entryDx=0;entryDy=0;entryPerimeter=0;strokeColor=#A8201A;fontColor=#143642;fillColor=#FAE5C7;" edge="1" parent="1" source="702DxE4d49M8s_BqWGsq-89" target="702DxE4d49M8s_BqWGsq-63">
          <mxGeometry relative="1" as="geometry">
            <Array as="points">
              <mxPoint x="1145" y="40" />
            </Array>
          </mxGeometry>
        </mxCell>
        <mxCell id="702DxE4d49M8s_BqWGsq-97" style="edgeStyle=orthogonalEdgeStyle;rounded=0;orthogonalLoop=1;jettySize=auto;html=1;entryX=1;entryY=0.5;entryDx=0;entryDy=0;entryPerimeter=0;strokeColor=#A8201A;fontColor=#143642;fillColor=#FAE5C7;" edge="1" parent="1" source="702DxE4d49M8s_BqWGsq-89" target="702DxE4d49M8s_BqWGsq-88">
          <mxGeometry relative="1" as="geometry">
            <Array as="points">
              <mxPoint x="1120" y="748" />
            </Array>
          </mxGeometry>
        </mxCell>
        <mxCell id="702DxE4d49M8s_BqWGsq-98" value="DBMS" style="text;html=1;align=center;verticalAlign=middle;resizable=0;points=[];autosize=1;strokeColor=none;fillColor=none;fontColor=#143642;" vertex="1" parent="1">
          <mxGeometry x="690" y="740" width="60" height="30" as="geometry" />
        </mxCell>
        <mxCell id="702DxE4d49M8s_BqWGsq-100" style="edgeStyle=orthogonalEdgeStyle;rounded=0;orthogonalLoop=1;jettySize=auto;html=1;entryX=0.002;entryY=0.411;entryDx=0;entryDy=0;entryPerimeter=0;strokeColor=#A8201A;fontColor=#143642;fillColor=#FAE5C7;" edge="1" parent="1" source="702DxE4d49M8s_BqWGsq-89" target="702DxE4d49M8s_BqWGsq-3">
          <mxGeometry relative="1" as="geometry">
            <Array as="points">
              <mxPoint x="1145" y="700" />
              <mxPoint x="140" y="700" />
              <mxPoint x="140" y="439" />
            </Array>
          </mxGeometry>
        </mxCell>
      </root>
    </mxGraphModel>
  </diagram>
</mxfile>
